<?xml version="1.0" encoding="utf-8"?>
<svg width="812" height="298" viewBox="0 0 812 298" fill="none" xmlns="http://www.w3.org/2000/svg">
  <defs>
    <linearGradient id="gradient_1" gradientUnits="userSpaceOnUse" x1="-64.803" y1="-44.628" x2="781.908" y2="307.594">
      <stop offset="0" stop-color="#4658D9" />
      <stop offset="1" stop-color="#2B1B9C" />
    </linearGradient>
    <filter color-interpolation-filters="sRGB" x="-798" y="-284" width="800" height="286" id="filter_2">
      <feFlood flood-opacity="0" result="BackgroundImageFix_1" />
      <feBlend mode="normal" in="SourceGraphic" in2="BackgroundImageFix_1" result="Shape_2" />
      <feGaussianBlur stdDeviation="2" />
    </filter>
    <clipPath id="clip_path_3">
      <rect width="800" height="286" rx="20" />
    </clipPath>
    <linearGradient id="gradient_4" gradientUnits="userSpaceOnUse" x1="604.5" y1="148" x2="132.368" y2="122.934">
      <stop offset="0" stop-color="#332CAD" />
      <stop offset="1" stop-color="#332DAD" />
    </linearGradient>
    <linearGradient id="gradient_5" gradientUnits="userSpaceOnUse" x1="436.5" y1="130" x2="165.5" y2="74">
      <stop offset="0" stop-color="#3E45C5" />
      <stop offset="1" stop-color="#3E46C7" />
    </linearGradient>
  </defs>
  <g clip-path="url(#clip_path_3)" transform="translate(6 6)">
    <rect width="800" height="286" fill="url(#gradient_1)" fill-rule="evenodd" filter="url(#filter_2)" />
    <path d="M664.802 187.638C661.976 150.884 629.846 123.377 593.034 126.192C585.039 126.805 577.479 128.8 570.574 131.92C569.843 130.936 569.11 129.954 568.348 128.998C568.328 128.691 568.325 128.39 568.303 128.083C565.48 91.3289 533.35 63.8219 496.538 66.6374C484.697 67.5421 473.825 71.4872 464.601 77.6274C456.026 52.6886 431.419 35.6698 403.858 37.7783C386.357 39.118 371.21 47.9006 361.291 60.7766C348.886 22.9989 311.915 -2.91125 270.433 0.262634C236.426 2.86552 208.402 24.3362 195.823 53.6032C186.362 49.6408 175.848 47.7844 164.914 48.6224C128.102 51.4379 100.545 83.5154 103.365 120.267C103.435 121.167 103.534 122.057 103.638 122.947C96.5708 121.728 89.2391 121.347 81.7614 121.918C33.0193 125.648 -3.47119 168.12 0.262817 216.781C4.00171 265.443 46.5437 301.871 95.2908 298.141C96.3158 298.062 97.3285 297.94 98.3437 297.829C109.848 314.415 129.607 324.644 151.211 322.993C166.736 321.806 180.382 314.69 190.118 304.053C218.207 327.492 255.108 340.457 294.493 337.441C321.191 335.399 345.627 326.253 366.149 312.047C379.31 330.406 401.478 341.653 425.67 339.802C448.4 338.064 467.587 325.163 478.289 306.903C490.784 316.2 506.559 321.218 523.317 319.935C556.794 317.372 582.607 290.614 584.893 258.146C590.796 259.335 596.954 259.76 603.256 259.28C640.065 256.467 667.619 224.392 664.802 187.638Z" fill="url(#gradient_4)" fill-rule="evenodd" transform="matrix(-1 0 0 1 1122 143)" />
    <path d="M9.5 13.6989L11.7902 18L11.7239 13.1759L15.8459 15.9687L13.4381 11.7266L18.4482 12.3712L14.25 9.68309L19 8.03165L13.9741 7.51331L17.3758 3.9446L12.673 5.71475L13.9473 1.04604L10.6451 4.69892L9.5 0L8.3549 4.69892L5.05267 1.04604L6.32705 5.71475L1.62454 3.9446L5.02629 7.51331L0 8.03165L4.75 9.68309L0.552193 12.3712L5.56227 11.7266L3.1541 15.9687L7.27653 13.1759L7.20981 18L9.5 13.6989Z" fill="#FFFFFF" fill-rule="evenodd" fill-opacity="0.2" transform="matrix(1 0 0 -1 48 59)" />
    <path d="M7 10.0939L8.6875 13.2632L8.63864 9.70856L11.6759 11.7664L9.90176 8.64067L13.5934 9.11564L10.5 7.13491L14 5.91806L10.2967 5.53613L12.8033 2.90655L9.33795 4.21087L10.277 0.770767L7.84375 3.46236L7 0L6.15625 3.46236L3.72302 0.770767L4.66205 4.21087L1.19702 2.90655L3.70358 5.53613L0 5.91806L3.5 7.13491L0.406891 9.11564L4.09851 8.64067L2.32407 11.7664L5.36166 9.70856L5.3125 13.2632L7 10.0939Z" fill="#FF820A" fill-rule="evenodd" transform="matrix(1 0 0 -1 356 47.263)" />
    <path d="M9.5 13.6989L11.7902 18L11.7239 13.1759L15.8459 15.9687L13.4381 11.7266L18.4482 12.3712L14.25 9.68309L19 8.03166L13.9741 7.51331L17.3759 3.94461L12.673 5.71475L13.9473 1.04604L10.6451 4.69891L9.5 0L8.35492 4.69891L5.05267 1.04604L6.32703 5.71475L1.62457 3.94461L5.02631 7.51331L0 8.03166L4.75 9.68309L0.552185 12.3712L5.56226 11.7266L3.15411 15.9687L7.27655 13.1759L7.20978 18L9.5 13.6989Z" fill="#FFFFFF" fill-rule="evenodd" fill-opacity="0.2" transform="matrix(1 0 0 -1 595 249)" />
    <path d="M9.5 13.6989L11.7902 18L11.7238 13.1759L15.8459 15.9687L13.4381 11.7266L18.4482 12.3712L14.25 9.68309L19 8.03166L13.9741 7.51331L17.3758 3.94461L12.6729 5.71475L13.9473 1.04604L10.6451 4.69891L9.5 0L8.35492 4.69891L5.05267 1.04604L6.32706 5.71475L1.62454 3.94461L5.02628 7.51331L0 8.03166L4.75 9.68309L0.552185 12.3712L5.56229 11.7266L3.15411 15.9687L7.27652 13.1759L7.20981 18L9.5 13.6989Z" fill="#FF820A" fill-rule="evenodd" transform="matrix(1 0 0 -1 310 240)" />
    <path d="M330.623 72.1978C321.643 72.1978 312.972 73.5149 304.771 75.9281C290.213 31.8358 248.681 0 199.683 -1.52588e-05C143.135 0 96.5239 42.3967 89.8624 97.1155C83.4197 95.1421 76.5786 94.0744 69.488 94.0744C31.11 94.0744 0 125.166 0 163.522C0 201.878 31.11 232.97 69.488 232.97C77.9928 232.97 86.1364 231.436 93.6715 228.64C107.303 251.602 132.345 267 160.996 267C179.394 267 196.297 260.638 209.657 250.013C223.017 260.638 239.918 267 258.32 267C275.977 267 292.269 261.147 305.362 251.284C313.388 253.586 321.855 254.846 330.621 254.846C381.087 254.846 422 213.957 422 163.52C422 113.083 381.089 72.1978 330.623 72.1978Z" fill="url(#gradient_5)" fill-rule="evenodd" transform="matrix(0.97 -0.242 0.242 0.97 -189 234.172)" />
  </g>
</svg>