<svg width="16" height="16" viewBox="0 0 16 16" fill="none" xmlns="http://www.w3.org/2000/svg">
<path d="M9.25 1.5C9.25 2.21875 8.6875 2.75 8 2.75C7.28125 2.75 6.75 2.21875 6.75 1.5C6.75 0.8125 7.28125 0.25 8 0.25C8.6875 0.25 9.25 0.8125 9.25 1.5ZM8 13.25C8.6875 13.25 9.25 13.8125 9.25 14.5C9.25 15.2188 8.6875 15.75 8 15.75C7.28125 15.75 6.75 15.2188 6.75 14.5C6.75 13.8125 7.28125 13.25 8 13.25ZM15.75 8C15.75 8.71875 15.1875 9.25 14.5 9.25C13.7812 9.25 13.25 8.71875 13.25 8C13.25 7.3125 13.7812 6.75 14.5 6.75C15.1875 6.75 15.75 7.3125 15.75 8ZM2.75 8C2.75 8.71875 2.1875 9.25 1.5 9.25C0.78125 9.25 0.25 8.71875 0.25 8C0.25 7.3125 0.78125 6.75 1.5 6.75C2.1875 6.75 2.75 7.3125 2.75 8ZM3.375 2.15625C4.09375 2.15625 4.625 2.71875 4.625 3.40625C4.625 4.125 4.09375 4.65625 3.375 4.65625C2.6875 4.65625 2.125 4.125 2.125 3.40625C2.125 2.71875 2.6875 2.15625 3.375 2.15625ZM12.5938 11.375C13.2812 11.375 13.8438 11.9062 13.8438 12.625C13.8438 13.3125 13.2812 13.875 12.5938 13.875C11.875 13.875 11.3438 13.3125 11.3438 12.625C11.3438 11.9062 11.875 11.375 12.5938 11.375ZM3.375 11.375C4.09375 11.375 4.625 11.9062 4.625 12.625C4.625 13.3125 4.09375 13.875 3.375 13.875C2.6875 13.875 2.125 13.3125 2.125 12.625C2.125 11.9062 2.6875 11.375 3.375 11.375Z" fill="white"/>
</svg>
